<?xml version="1.0" standalone="no"?>
<!DOCTYPE svg PUBLIC "-//W3C//DTD SVG 20010904//EN"
 "http://www.w3.org/TR/2001/REC-SVG-20010904/DTD/svg10.dtd">
<svg version="1.0" xmlns="http://www.w3.org/2000/svg"
 width="600.000000pt" height="600.000000pt" viewBox="0 0 600.000000 600.000000"
 preserveAspectRatio="xMidYMid meet">
<metadata>
Created by potrace 1.11, written by Peter Selinger 2001-2013
</metadata>
<g transform="translate(0.000000,600.000000) scale(0.100000,-0.100000)"
fill="#000000" stroke="none">
<path d="M470 4441 c0 -12 131 -502 305 -1141 68 -250 198 -732 289 -1070 90
-338 208 -776 262 -972 l98 -358 507 0 507 0 30 113 c17 61 155 576 307 1142
153 567 280 1033 284 1037 3 4 84 -275 179 -620 95 -345 237 -861 316 -1147
l143 -520 510 -3 510 -2 17 62 c10 35 110 407 222 827 113 420 243 902 289
1070 95 348 425 1578 425 1586 0 3 -209 5 -465 5 l-465 0 -5 -22 c-3 -13 -26
-108 -51 -213 -25 -104 -146 -624 -270 -1155 -263 -1128 -244 -1051 -255
-1025 -7 16 -316 1225 -563 2205 l-52 205 -460 2 -459 3 -159 -593 c-87 -325
-233 -869 -323 -1207 -91 -338 -168 -618 -172 -623 -4 -4 -26 77 -49 180 -23
104 -145 649 -270 1213 l-229 1025 -476 3 c-301 1 -477 -1 -477 -7z"/>
</g>
</svg>
